<svg width="100" height="100" viewBox="0 0 100 100" xmlns="http://www.w3.org/2000/svg">
  <defs>
    <linearGradient id="ic1" x1="-35.98" y1="865.45" x2="42.17" y2="865.45" gradientTransform="translate(411.73 -733.74) rotate(25.71)" gradientUnits="userSpaceOnUse">
      <stop offset=".29" stop-color="#0076fd"/>
      <stop offset="1" stop-color="#71beff" stop-opacity="0"/>
    </linearGradient>
    <linearGradient id="ic2" x1="3512.8" y1="439.73" x2="3607.53" y2="439.73" gradientTransform="translate(3299.48 1561.3) rotate(-162.08)" gradientUnits="userSpaceOnUse">
      <stop offset=".14" stop-color="#0076fd"/>
      <stop offset="1" stop-color="#71beff" stop-opacity="0"/>
    </linearGradient>
  </defs>
  <rect width="100" height="100" rx="22" fill="#02081c"/>
  <g transform="translate(3 3)">
    <path d="M22.12,82.58C2.71,73.23-5.48,49.83,3.87,30.42,13.21,11.01,36.61,2.82,56.03,12.16c19.41,9.35,27.6,32.75,18.26,52.16-9.35,19.41-32.75,27.6-52.16,18.26ZM52.48,19.52c-15.36-7.39-33.87-.92-41.26,14.44-7.39,15.36-.92,33.87,14.44,41.26s33.87.92,41.26-14.44c7.39-15.36.92-33.87-14.44-41.26Z" fill="url(#ic1)"/>
    <path d="M61.95,2.3c24.85,8.04,38.53,34.79,30.49,59.65-8.04,24.85-34.79,38.53-59.65,30.49C7.95,84.41-5.73,57.65,2.3,32.8,10.34,7.94,37.1-5.73,61.95,2.3ZM35.84,83.02c19.66,6.36,40.82-4.46,47.18-24.12,6.36-19.66-4.46-40.82-24.12-47.18-19.66-6.36-40.82,4.46-47.18,24.12-6.36,19.66,4.46,40.82,24.12,47.18Z" fill="url(#ic2)"/>
  </g>
</svg>
